#Comment line ignore any data following # character
#Hierarchical Translation and Rotation (.htr) file
[Header]		#Header keywords are followed by a single value
FileType htr		#Single word string
DataType HTRS		#Translation followed by rotation and scale data
FileVersion 1		#integer
NumSegments 18		#integer
NumFrames 8		#integer
DataFrameRate 60		#integer, data frame rate in this file
EulerRotationOrder ZYX
CalibrationUnits mm
RotationUnits Degrees
GlobalAxisofGravity Y
BoneLengthAxis Y
ScaleFactor 1.000000
[SegmentNames&Hierarchy]
#CHILD	PARENT
Head	Neck
Neck	Chest
Chest	Hips
LeftShoulder	LeftCollar
RightShoulder	RightCollar
LeftElbow	LeftShoulder
RightElbow	RightShoulder
LeftWrist	LeftElbow
RightWrist	RightElbow
Hips	GLOBAL
LeftHip	Hips
RightHip	Hips
LeftKnee	LeftHip
RightKnee	RightHip
LeftAnkle	LeftKnee
RightAnkle	RightKnee
LeftCollar	Chest
RightCollar	Chest
[BasePosition]
#SegmentName Tx, Ty, Tz, Rx, Ry, Rz, BoneLength
Head	0.000003	141.966248	0.000002	-37.745777	-8.179454	6.203664	80.000046
Neck	0.000000	379.566772	0.000000	32.855431	-5.194619	1.823337	141.966263
Chest	0.000000	94.891693	0.000000	0.000002	12.877405	-0.000012	379.566803
LeftShoulder	0.000003	154.023666	0.000005	171.957962	-79.977570	-157.094910	215.219986
RightShoulder	-0.000001	146.408707	-0.000001	20.020029	60.865143	-8.207462	240.139038
LeftElbow	0.000007	215.219971	-0.000011	-24.162848	54.442085	-17.491318	336.440125
RightElbow	-0.000021	240.139038	0.000007	-21.925606	-43.617706	23.102211	322.101532
LeftWrist	-0.000014	336.440094	0.000002	173.178864	-0.531422	156.628021	100.348160
RightWrist	0.000005	322.101501	0.000026	1.868945	1.747480	14.125610	109.739998
Hips	377.886597	1077.530640	704.474976	-179.011169	36.455761	-178.006714	94.891701
LeftHip	95.336761	5.238981	-8.336124	-0.485735	-9.415434	-176.117065	525.916443
RightHip	-96.119095	-4.691877	-4.857316	2.457280	-1.423929	-179.125565	528.302429
LeftKnee	0.000004	525.916443	0.000001	-10.646533	-14.541370	-1.855900	514.711975
RightKnee	-0.000002	528.302429	0.000004	-12.768950	2.118825	-3.063609	521.764099
LeftAnkle	0.000003	514.711975	0.000009	97.965164	-0.000001	0.000000	253.446518
RightAnkle	0.000001	521.764099	-0.000002	99.242271	0.000002	0.000000	256.283173
LeftCollar	19.999998	366.483276	-15.126845	169.660507	-4.312743	90.901894	154.023682
RightCollar	-19.999996	366.483215	-15.126822	171.369568	4.171492	-91.645760	146.408707
#Beginning of Data. Separated by tabs
[Head]
#Fr	Tx	Ty	Tz	Rx	Ry	Rz	SF
1	-0.000004	11.246399	-0.000001	-8.720660	-3.164685	6.637906	1.000000
2	-0.000005	11.559982	-0.000003	-8.967685	-3.106098	6.445398	0.999999
3	-0.000002	12.017212	-0.000007	-9.358359	-3.035935	6.275136	1.000000
4	-0.000003	12.455017	0.000008	-9.655172	-3.020831	5.824823	0.999999
5	-0.000002	12.714844	-0.000018	-9.875129	-2.993885	5.638447	0.999999
6	-0.000005	13.125366	0.000009	-10.213501	-2.994159	5.623314	0.999999
7	-0.000006	13.414459	-0.000002	-10.560837	-3.024019	5.315914	0.999999
8	-0.000012	13.502380	0.000001	-10.626256	-3.081200	5.259206	1.000000
[Neck]
#Fr	Tx	Ty	Tz	Rx	Ry	Rz	SF
1	0.000000	-12.073059	0.000010	0.396232	-0.246686	-4.863737	1.079219
2	-0.000002	-12.097473	-0.000004	0.425361	-0.269309	-4.636292	1.081428
3	0.000003	-12.149017	0.000005	0.431073	-0.276322	-4.440190	1.084648
4	0.000003	-12.195129	0.000005	0.373368	-0.320314	-4.015474	1.087732
5	-0.000000	-12.247162	0.000006	0.276545	-0.352411	-3.782660	1.089562
6	-0.000001	-12.339478	0.000001	0.192049	-0.400480	-3.620666	1.092454
7	-0.000000	-12.386627	-0.000002	0.038318	-0.432924	-3.323334	1.094490
8	-0.000002	-12.424622	-0.000004	-0.175358	-0.493741	-3.143350	1.095110
[Chest]
#Fr	Tx	Ty	Tz	Rx	Ry	Rz	SF
1	-0.000000	-3.018326	0.000001	-0.000001	-1.628358	0.000009	0.968192
2	-0.000000	-3.024338	-0.000000	-0.000020	-1.705875	0.000017	0.968128
3	0.000000	-3.037315	-0.000001	-0.000000	-1.833780	0.000011	0.967992
4	0.000000	-3.048843	0.000001	0.000009	-1.859989	0.000011	0.967871
5	-0.000000	-3.061775	0.000000	0.000015	-1.936645	0.000002	0.967734
6	-0.000001	-3.084869	-0.000001	0.000005	-1.865261	0.000013	0.967491
7	-0.000000	-3.096672	-0.000001	-0.000017	-1.909862	0.000016	0.967366
8	-0.000001	-3.106155	-0.000001	-0.000013	-1.942063	0.000020	0.967266
[LeftShoulder]
#Fr	Tx	Ty	Tz	Rx	Ry	Rz	SF
1	0.000000	13.815002	-0.000001	83.761948	35.203880	79.582558	1.241342
2	-0.000002	13.839508	-0.000007	83.631897	35.184998	79.323212	1.241620
3	0.000003	13.879105	-0.000008	83.446190	35.158840	78.964630	1.241893
4	-0.000001	13.896652	-0.000015	83.191414	35.118057	78.516655	1.242110
5	-0.000008	13.935806	-0.000004	82.935799	35.061035	78.052147	1.242461
6	0.000002	13.956223	0.000005	82.643318	35.010067	77.521225	1.242731
7	-0.000000	13.979568	0.000006	82.332733	34.949951	76.966423	1.242944
8	-0.000001	13.963593	-0.000005	82.020050	34.894890	76.418793	1.243105
[RightShoulder]
#Fr	Tx	Ty	Tz	Rx	Ry	Rz	SF
1	0.000001	13.459503	0.000006	52.406124	-42.238705	-73.830421	1.125802
2	0.000001	13.286621	-0.000001	52.394287	-42.320644	-73.863625	1.126161
3	0.000004	13.057480	0.000007	52.391026	-42.430874	-73.932907	1.126496
4	0.000002	12.823669	0.000001	52.361317	-42.543335	-74.020363	1.126852
5	0.000003	12.545746	-0.000002	52.361435	-42.695633	-74.169662	1.127184
6	-0.000004	12.268600	-0.000000	52.361362	-42.826336	-74.324669	1.127552
7	-0.000003	11.984970	0.000005	52.376171	-42.983051	-74.531532	1.127884
8	-0.000005	11.748749	-0.000004	52.437344	-43.169094	-74.815346	1.128189
[LeftElbow]
#Fr	Tx	Ty	Tz	Rx	Ry	Rz	SF
1	-0.000013	51.941711	0.000027	-3.925248	-24.090729	4.376663	0.944601
2	-0.000028	52.001495	0.000031	-3.939872	-23.993404	4.348942	0.944359
3	-0.000003	52.060089	0.000029	-3.986719	-23.935844	4.340318	0.944071
4	-0.000020	52.106842	0.000013	-4.066165	-23.944836	4.355264	0.943693
5	-0.000007	52.182587	0.000015	-4.171715	-24.010218	4.389251	0.943331
6	-0.000006	52.240540	0.000023	-4.355193	-24.228209	4.476033	0.942924
7	-0.000005	52.286316	0.000018	-4.577144	-24.530773	4.594813	0.942492
8	-0.000003	52.321045	0.000018	-4.846133	-24.973906	4.765691	0.942023
[RightElbow]
#Fr	Tx	Ty	Tz	Rx	Ry	Rz	SF
1	0.000028	30.209961	0.000002	-8.925378	29.599155	-1.955990	0.984899
2	0.000030	30.296173	-0.000008	-8.816924	29.673548	-2.041257	0.984634
3	0.000020	30.376617	-0.000004	-8.697244	29.803253	-2.158922	0.984412
4	0.000001	30.462097	-0.000015	-8.559615	29.972034	-2.303638	0.984125
5	0.000020	30.541901	-0.000012	-8.420168	30.170265	-2.459949	0.983877
6	0.000030	30.630188	-0.000001	-8.278640	30.337233	-2.599061	0.983564
7	0.000026	30.709991	-0.000010	-8.132574	30.521347	-2.745598	0.983240
8	0.000028	30.783142	0.000003	-7.987457	30.679907	-2.878979	0.982857
[LeftWrist]
#Fr	Tx	Ty	Tz	Rx	Ry	Rz	SF
1	0.000003	-18.638397	-0.000015	107.779221	-83.890533	-110.960365	1.050000
2	-0.000024	-18.719818	0.000002	107.994080	-84.038475	-111.112129	1.049792
3	0.000007	-18.816986	-0.000010	108.143028	-84.139809	-111.221283	1.049599
4	0.000013	-18.943848	-0.000015	108.275330	-84.231697	-111.326546	1.049541
5	0.000016	-19.065582	0.000000	108.362549	-84.293236	-111.397873	1.049385
6	0.000006	-19.202576	-0.000027	108.235237	-84.334351	-111.361023	1.048857
7	0.000013	-19.347931	0.000001	107.972397	-84.300507	-111.241333	1.048564
8	0.000000	-19.505676	-0.000019	107.544502	-84.253792	-111.029198	1.047657
[RightWrist]
#Fr	Tx	Ty	Tz	Rx	Ry	Rz	SF
1	0.000005	-4.863892	-0.000016	-104.610184	82.968636	-99.990471	0.985911
2	-0.000004	-4.949310	-0.000014	-104.448631	83.079323	-99.959129	0.985429
3	0.000004	-5.020935	-0.000038	-104.185310	83.194710	-99.850380	0.984514
4	-0.000024	-5.113342	-0.000041	-103.852226	83.325455	-99.712166	0.983020
5	-0.000000	-5.192993	-0.000031	-103.642601	83.475227	-99.665794	0.981678
6	-0.000006	-5.293945	-0.000049	-103.212723	83.611656	-99.458626	0.980326
7	0.000017	-5.398224	-0.000014	-102.736038	83.725868	-99.186157	0.978840
8	-0.000006	-5.521759	-0.000022	-102.499878	83.823166	-99.078621	0.977702
[Hips]
#Fr	Tx	Ty	Tz	Rx	Ry	Rz	SF
1	-1112.535889	16.523438	-582.300842	50.390434	-85.266396	-41.504185	0.968192
2	-1112.928955	16.720703	-581.117249	49.189865	-85.150032	-40.316120	0.968128
3	-1113.490356	16.984253	-579.715271	47.404793	-84.982460	-38.523834	0.967992
4	-1114.294189	17.269043	-578.109375	46.338123	-84.853470	-37.429092	0.967870
5	-1115.285645	17.584961	-576.199097	44.771473	-84.659782	-35.817039	0.967734
6	-1116.430420	17.963623	-574.137268	44.333122	-84.569847	-35.314960	0.967491
7	-1117.809814	18.289429	-571.843140	43.002373	-84.366997	-33.891548	0.967366
8	-1119.230469	18.582031	-569.616821	41.909386	-84.200089	-32.684517	0.967266
[LeftHip]
#Fr	Tx	Ty	Tz	Rx	Ry	Rz	SF
1	1.874519	-4.514181	2.456207	16.237614	0.050990	3.735080	0.997758
2	1.820427	-4.414242	2.499619	16.227806	0.054104	3.808969	0.998198
3	1.857727	-4.369571	2.597012	16.286543	0.094864	3.840323	0.998009
4	1.816971	-4.248943	2.669556	16.346205	0.095703	3.926047	0.998038
5	1.776131	-4.127733	2.846076	16.439579	0.133029	4.033665	0.998347
6	1.615623	-4.082033	2.812560	16.532753	0.057843	4.149788	0.998813
7	1.579849	-3.990449	2.962870	16.683784	0.048602	4.292861	0.998879
8	1.525024	-3.912754	2.990926	16.866699	0.062212	4.373809	0.998930
[RightHip]
#Fr	Tx	Ty	Tz	Rx	Ry	Rz	SF
1	-0.236748	2.359360	-5.008488	15.787422	1.024064	-7.257273	1.010598
2	-0.152199	2.261423	-5.098666	15.545793	1.053510	-7.157682	1.010190
3	-0.150002	2.238303	-5.196729	15.276846	1.064187	-7.065234	1.009909
4	-0.087677	2.144847	-5.214881	15.070670	1.082278	-6.956454	1.009654
5	0.026695	2.054516	-5.392919	14.873136	1.121826	-6.814531	1.009307
6	0.149117	2.043342	-5.234259	14.694798	1.110494	-6.654320	1.009153
7	0.218903	1.992773	-5.246998	14.548651	1.123966	-6.476694	1.008972
8	0.293068	1.938968	-5.309768	14.491146	1.116961	-6.341667	1.008739
[LeftKnee]
#Fr	Tx	Ty	Tz	Rx	Ry	Rz	SF
1	-0.000013	-1.179138	0.000001	-15.567005	-4.739112	5.805853	0.980860
2	0.000004	-0.947693	-0.000002	-15.523184	-4.706165	5.806359	0.980786
3	-0.000009	-1.047119	0.000006	-15.495789	-4.580101	5.869477	0.981278
4	-0.000006	-1.031738	0.000006	-15.453197	-4.459129	5.862146	0.981783
5	-0.000006	-0.869141	-0.000003	-15.430404	-4.327009	5.851741	0.982021
6	-0.000005	-0.624084	0.000002	-15.392733	-4.208263	5.851943	0.982100
7	-0.000001	-0.589661	0.000011	-15.361595	-4.016876	5.788358	0.982501
8	0.000001	-0.562988	-0.000004	-15.323150	-3.828574	5.831159	0.983019
[RightKnee]
#Fr	Tx	Ty	Tz	Rx	Ry	Rz	SF
1	0.000014	5.598694	0.000004	-15.268150	9.185243	-0.711757	1.005186
2	0.000006	5.383545	0.000011	-14.904158	9.361836	-0.678691	1.004277
3	0.000002	5.234863	0.000019	-14.483703	9.626666	-0.632644	1.003231
4	-0.000004	5.100281	0.000011	-14.113708	9.829326	-0.559216	1.002184
5	-0.000002	4.916870	-0.000008	-13.734515	10.042684	-0.513080	1.001314
6	0.000009	4.835510	0.000000	-13.322753	10.181419	-0.445895	1.000370
7	-0.000010	4.740112	-0.000012	-12.956197	10.464824	-0.408855	0.999415
8	0.000011	4.617004	-0.000033	-12.691483	10.666732	-0.343474	0.998737
[LeftAnkle]
#Fr	Tx	Ty	Tz	Rx	Ry	Rz	SF
1	-0.000011	-9.851410	0.000011	2.843235	-0.000000	-0.000001	1.033134
2	0.000017	-9.889526	0.000018	2.784328	0.000000	-0.000001	1.032441
3	-0.000013	-9.636719	-0.000033	2.718909	-0.000001	-0.000001	1.031782
4	0.000009	-9.376617	-0.000041	2.647880	0.000000	-0.000000	1.030968
5	-0.000006	-9.253906	0.000001	2.575551	0.000000	-0.000001	1.030736
6	-0.000004	-9.213440	0.000004	2.482595	-0.000001	-0.000001	1.030174
7	0.000006	-9.006744	0.000005	2.412908	-0.000001	-0.000001	1.029899
8	0.000000	-8.740356	0.000037	2.313193	-0.000000	-0.000001	1.029543
[RightAnkle]
#Fr	Tx	Ty	Tz	Rx	Ry	Rz	SF
1	-0.000007	2.706116	-0.000010	4.153965	0.000000	0.000000	0.997164
2	-0.000000	2.231934	0.000010	4.001956	-0.000000	0.000001	0.997414
3	-0.000011	1.685974	-0.000020	3.827827	0.000001	-0.000001	0.998175
4	0.000006	1.139282	-0.000005	3.640462	0.000001	0.000004	0.998355
5	0.000016	0.685425	0.000010	3.476471	0.000001	0.000004	0.999365
6	-0.000009	0.192932	-0.000038	3.297355	0.000000	0.000001	0.999744
7	0.000008	-0.305054	-0.000000	3.125062	-0.000000	0.000003	1.001020
8	-0.000007	-0.658875	0.000017	2.975344	0.000001	0.000005	1.000806
[LeftCollar]
#Fr	Tx	Ty	Tz	Rx	Ry	Rz	SF
1	-0.000010	-11.597260	-0.398872	-1.000729	0.923276	10.489632	1.089694
2	-0.000010	-11.614258	-0.404864	-1.027217	0.956677	10.465802	1.089853
3	0.000008	-11.659576	-0.409869	-1.061505	0.985632	10.445358	1.090110
4	0.000010	-11.698303	-0.415816	-1.121152	1.021465	10.420511	1.090224
5	0.000010	-11.743195	-0.421641	-1.207885	1.061786	10.374288	1.090478
6	0.000002	-11.830444	-0.425755	-1.285967	1.091685	10.338727	1.090611
7	-0.000002	-11.875122	-0.427740	-1.374543	1.113416	10.295812	1.090762
8	-0.000002	-11.913269	-0.427609	-1.442799	1.119436	10.287952	1.090659
[RightCollar]
#Fr	Tx	Ty	Tz	Rx	Ry	Rz	SF
1	0.000006	-11.597107	-0.398855	-3.114126	-1.254626	-11.935379	1.091931
2	-0.000015	-11.614227	-0.404881	-3.163443	-1.282111	-12.004474	1.090750
3	-0.000004	-11.659576	-0.409896	-3.209912	-1.304742	-12.069533	1.089185
4	-0.000006	-11.698273	-0.415854	-3.249216	-1.330547	-12.128672	1.087588
5	0.000004	-11.743134	-0.421668	-3.280094	-1.353847	-12.192791	1.085690
6	0.000002	-11.830353	-0.425763	-3.322731	-1.372104	-12.238359	1.083797
7	0.000000	-11.875031	-0.427744	-3.349491	-1.378327	-12.282487	1.081860
8	-0.000006	-11.913300	-0.427615	-3.397942	-1.381132	-12.289468	1.080246
[EndOfFile]
